<svg width="380px" height="380px" 
	 version="1.1" xmlns="http://www.w3.org/2000/svg">
  <desc>A tennis court with stats</desc>
	<g transform="scale(1.5)">
		<g font-family="Gill Sans, Helvetica, Arial, sans-serif" font-size="10px" color="black" text-anchor="middle">
			<defs>
				<linearGradient id="fadeout1" y1="0%" y2="100%" x1="1" x2="1">
					<stop offset="60%" stop-opacity="1" />
					<stop offset="99%" stop-opacity="0" />
				</linearGradient>
				<linearGradient id="fadeout2" y1="100%" y2="0%" x1="1" x2="1">
					<stop offset="60%" stop-opacity="1" />
					<stop offset="99%" stop-opacity="0" />
				</linearGradient>
			</defs>

<rect id="bg" x="0" y="0" width="100%" height="100%" fill="gainsboro"></rect>
<g id="court" fill="lawngreen" stroke="white" stroke-width="2px">
	<rect x="20" y="20" width="100" height="200"></rect>
	<line x1="20" y1="65" x2="120" y2="65"></line>
	<line x1="20" y1="175" x2="120" y2="175"></line>
	<line x1="70" y1="65" x2="70" y2="175"></line>
	<line x1="70" y1="20" x2="70" y2="25"></line>
	<line x1="70" y1="215" x2="70" y2="220"></line>
	<line x1="18" y1="120" x2="122" y2="120" stroke="dimgrey"></line>
	</g>
<g id="players" font-size="13px" font-weight="bold" opacity="1">
	<text x="70" y="13">P1</text>
	<text x="70" y="236">P2</text>
	</g>
<g id="zone_numbers" font-size="11px" opacity="0">
	<text x="18" y="25">1</text>
	<text x="68" y="25">2</text>
	<text x="118" y="25">3</text>
	<text x="18" y="75">4</text>
	<text x="38" y="75">5</text>
	<text x="58" y="75">6</text>
	<text x="75" y="75">6</text>
	<text x="95" y="75">5</text>
	<text x="115" y="75">4</text>
	<text x="155" y="25">9</text>
	<text x="155" y="55">8</text>
	<text x="155" y="85">7</text>
	</g>
<g id="return_zones_1" fill="black" opacity="1">
	<rect id="z17" x="19" y="66" width="31" height="45" fill="url(#fadeout1)" opacity=".14"></rect>
	<rect id="z27" x="50" y="66" width="40" height="45" fill="url(#fadeout1)" opacity=".15"></rect>
	<rect id="z37" x="90" y="66" width="31" height="45" fill="url(#fadeout1)" opacity=".20"></rect>
	<rect id="z18" x="19" y="42" width="31" height="24" opacity=".20"></rect>
	<rect id="z28" x="50" y="42" width="40" height="24" opacity=".33"></rect>
	<rect id="z38" x="90" y="42" width="31" height="24" opacity=".29"></rect>
	<rect id="z19" x="19" y="19" width="31" height="23" opacity=".25"></rect>
	<rect id="z29" x="50" y="19" width="40" height="23" opacity=".35"></rect>
	<rect id="z39" x="90" y="19" width="31" height="23" opacity=".42"></rect>
	<text x="70" y="58" text-anchor="middle">Return placement</text>
	</g>
<g id="return_zones_2" fill="black" opacity="1" transform="rotate(180,70,120)">
	<rect id="z17" x="19" y="66" width="31" height="45" fill="url(#fadeout1)" opacity=".14"></rect>
	<rect id="z27" x="50" y="66" width="40" height="45" fill="url(#fadeout1)" opacity=".15"></rect>
	<rect id="z37" x="90" y="66" width="31" height="45" fill="url(#fadeout1)" opacity=".20"></rect>
	<rect id="z18" x="19" y="42" width="31" height="24" opacity=".20"></rect>
	<rect id="z28" x="50" y="42" width="40" height="24" opacity=".33"></rect>
	<rect id="z38" x="90" y="42" width="31" height="24" opacity=".29"></rect>
	<rect id="z19" x="19" y="19" width="31" height="23" opacity=".25"></rect>
	<rect id="z29" x="50" y="19" width="40" height="23" opacity=".35"></rect>
	<rect id="z39" x="90" y="19" width="31" height="23" opacity=".42"></rect>
	<text x="70" y="188" text-anchor="middle" transform="rotate(180,70,120)">Return placement</text>
	</g>
<g id="groundie_zones_1" fill="url(#fadeout1)" opacity="1">
	<rect id="za1" x="19" y="19" width="31" height="75" opacity=".25"></rect>
	<rect id="za2" x="50" y="19" width="40" height="75" opacity=".45"></rect>
	<rect id="za3" x="90" y="19" width="31" height="75" opacity=".35"></rect>
	<text x="35" y="35"><tspan>0</tspan>%</text>
	<text x="70" y="35"><tspan>0</tspan>%</text>
	<text x="105" y="35"><tspan>0</tspan>%</text>
	</g>
<g id="groundie_zones_2" fill="url(#fadeout2)" opacity="1">
	<rect id="zb1" x="19" y="146" width="31" height="75" opacity=".25"></rect>
	<rect id="zb2" x="50" y="146" width="40" height="75" opacity=".45"></rect>
	<rect id="zb3" x="90" y="146" width="31" height="75" opacity=".35"></rect>
	<text x="35" y="210" text-anchor="middle"><tspan>0</tspan>%</text>
	<text x="70" y="210" text-anchor="middle"><tspan>0</tspan>%</text>
	<text x="105" y="210" text-anchor="middle"><tspan>0</tspan>%</text>
	</g>
<g id="serve_line_deuce_1" stroke="firebrick" stroke-width="1" stroke-dasharray="3 3" opacity="0.5">
	<line x1="75" y1="225" x2="20" y2="77"></line>
	<line x1="75" y1="225" x2="42" y2="77"></line>
	<line x1="75" y1="225" x2="65" y2="77"></line>
	</g>
<g id="serve_line_ad_1" stroke="darkblue" stroke-width="1" stroke-dasharray="3 3" opacity="0.5">
	<line x1="65" y1="225" x2="75" y2="77"></line>
	<line x1="65" y1="225" x2="97" y2="77"></line>
	<line x1="65" y1="225" x2="120" y2="77"></line>
	</g>
<g id="serve_line_deuce_2" stroke="firebrick" stroke-width="1" stroke-dasharray="3 3" opacity="0.5" transform="rotate(180,70,120)">
	<line x1="75" y1="225" x2="20" y2="77"></line>
	<line x1="75" y1="225" x2="42" y2="77"></line>
	<line x1="75" y1="225" x2="65" y2="77"></line>
	</g>
<g id="serve_line_ad_2" stroke="darkblue" stroke-width="1" stroke-dasharray="3 3" opacity="0.5" transform="rotate(180,70,120)">
	<line x1="65" y1="225" x2="75" y2="77"></line>
	<line x1="65" y1="225" x2="97" y2="77"></line>
	<line x1="65" y1="225" x2="120" y2="77"></line>
	</g>
<g id="serve_box_stats_deuce_1" font-size="9px" opacity="1">
	<text x="25" y="75"><tspan>0</tspan>%</text>
	<text x="45" y="75"><tspan>0</tspan>%</text>
	<text x="64" y="75"><tspan>0</tspan>%</text>
	<g id="bars_deuce_1">
		<rect x="21" y="77" width="3" height="20" fill="green"></rect>
		<rect x="25" y="77" width="3" height="15" fill="firebrick"></rect>
		<rect x="41" y="77" width="3" height="5" fill="green"></rect>
		<rect x="45" y="77" width="3" height="3" fill="firebrick"></rect>
		<rect x="61" y="77" width="3" height="21" fill="green"></rect>
		<rect x="65" y="77" width="3" height="6" fill="firebrick"></rect>
	</g>
	<g id="aces_deuce_1" fill="darkgreen">
		<circle cx="20" cy="65" r="2"></circle>
		<text x="20" y="62" font-size="8px"><tspan>0</tspan></text>
		<circle cx="43" cy="65" r="2"></circle>
		<text x="42" y="62" font-size="8px"><tspan>0</tspan></text>
		<circle cx="68" cy="65" r="2"></circle>
		<text x="65" y="62" font-size="8px"><tspan>0</tspan></text>
	</g>
	</g>
<g id="serve_box_stats_ad_1" font-size="9px" opacity="1" transform="translate(50,0)">
	<text x="28" y="75"><tspan>0</tspan>%</text>
	<text x="46" y="75"><tspan>0</tspan>%</text>
	<text x="65" y="75"><tspan>0</tspan>%</text>
	<g id="bars_ad_1" fill="darkgreen">
		<rect x="22" y="77" width="3" height="20" fill="green"></rect>
		<rect x="26" y="77" width="3" height="15" fill="firebrick"></rect>
		<rect x="42" y="77" width="3" height="5" fill="green"></rect>
		<rect x="46" y="77" width="3" height="3" fill="firebrick"></rect>
		<rect x="62" y="77" width="3" height="21" fill="green"></rect>
		<rect x="66" y="77" width="3" height="6" fill="firebrick"></rect>
	</g>
	<g id="aces_ad_1" fill="darkgreen">
		<circle cx="23" cy="65" r="2"></circle>
		<text x="25" y="62" font-size="8px"><tspan>0</tspan></text>
		<circle cx="46" cy="65" r="2"></circle>
		<text x="45" y="62" font-size="8px"><tspan>0</tspan></text>
		<circle cx="69" cy="65" r="2"></circle>
		<text x="67" y="62" font-size="8px"><tspan>0</tspan></text>
	</g>
	</g>
<g id="serve_box_stats_deuce_2" font-size="9px" opacity="1">
	<text x="79" y="171"><tspan>0</tspan>%</text>
	<text x="97" y="171"><tspan>0</tspan>%</text>
	<text x="117" y="171"><tspan>0</tspan>%</text>
	<g id="bars_deuce_2" transform="rotate(180,70,120)">
		<rect x="65" y="77" width="3" height="6" fill="firebrick"></rect>
		<rect x="61" y="77" width="3" height="21" fill="green"></rect>
		<rect x="45" y="77" width="3" height="3" fill="firebrick"></rect>
		<rect x="41" y="77" width="3" height="5" fill="green"></rect>
		<rect x="25" y="77" width="3" height="15" fill="firebrick"></rect>
		<rect x="21" y="77" width="3" height="20" fill="green"></rect>
	</g>
	<g id="aces_deuce_2" fill="darkgreen">
		<circle cx="72" cy="175" r="2"></circle>
		<text x="74" y="184" font-size="8px"><tspan>0</tspan></text>
		<circle cx="94" cy="175" r="2"></circle>
		<text x="94" y="184" font-size="8px"><tspan>0</tspan></text>
		<circle cx="120" cy="175" r="2"></circle>
		<text x="120" y="184" font-size="8px"><tspan>0</tspan></text>
	</g>
	</g>
<g id="serve_box_stats_ad_2" font-size="9px" opacity="1" transform="translate(50,0)">
	<text x="-25" y="171"><tspan>0</tspan>%</text>
	<text x="-5" y="171"><tspan>0</tspan>%</text>
	<text x="14" y="171"><tspan>0</tspan>%</text>
	<g id="bars_ad_2" fill="darkgreen" transform="translate(-100,0), rotate(180,70,120)">
		<rect x="66" y="77" width="3" height="6" fill="firebrick"></rect>
		<rect x="62" y="77" width="3" height="21" fill="green"></rect>
		<rect x="46" y="77" width="3" height="3" fill="firebrick"></rect>
		<rect x="42" y="77" width="3" height="5" fill="green"></rect>
		<rect x="26" y="77" width="3" height="15" fill="firebrick"></rect>
		<rect x="22" y="77" width="3" height="20" fill="green"></rect>
	</g>
	<g id="aces_ad_2" fill="darkgreen">
		<circle cx="-30" cy="175" r="2"></circle>
		<text x="-30" y="184" font-size="8px"><tspan>0</tspan></text>
		<circle cx="-7" cy="175" r="2"></circle>
		<text x="-7" y="184" font-size="8px"><tspan>0</tspan></text>
		<circle cx="18" cy="175" r="2"></circle>
		<text x="16" y="184" font-size="8px"><tspan>0</tspan></text>
	</g>
	</g>
<g id="serve_stats_1" font-size="10px" opacity="1">
	<text x="70" y="190">1st serves in: <tspan>0</tspan>%</text>
	<text x="70" y="202">1st serve pts won: <tspan>0</tspan>%</text>
	<text x="70" y="214">2nd serve pts won: <tspan>0</tspan>%</text>
	</g>
<g id="serve_stats_2" font-size="10px" opacity="1">
	<text x="70" y="33">1st serves in: <tspan>0</tspan>%</text>
	<text x="70" y="45">1st serve pts won: <tspan>0</tspan>%</text>
	<text x="70" y="57">2nd serve pts won: <tspan>0</tspan>%</text>
	</g>
<g id="return_stats_1" font-size="10px" opacity="1">
	<text x="70" y="195" text-anchor="middle">Returns in play: <tspan>0</tspan>%</text>
	<text x="70" y="207" text-anchor="middle">Return pts won: <tspan>0</tspan>%</text>
	</g>
<g id="return_stats_2" font-size="10px" opacity="1">
	<text x="70" y="40" text-anchor="middle">Returns in play: <tspan>0</tspan>%</text>
	<text x="70" y="52" text-anchor="middle">Return pts won: <tspan>0</tspan>%</text>
	</g>
<g id="net_stats" font-size="10px" opacity="1">
	<text x="70" y="100">Points won at net
		<tspan x="70" y="113">0/0</tspan></text>
	<text x="70" y="148">Points won at net
		<tspan x="70" y="135">0/0</tspan></text>
	</g>
</g></g></svg>